# xmcd
#
# Track frame offsets: 
#        150
#        26936
#        44874
#        65539
#        81332
#        100357
#        120513
#        144951
#        161467
#        187424
#        205107
#
# Disc length: 3652 seconds
#
# Revision: 0
# Processed by: cddbd v1.4PL0 Copyright (c) Steve Scherf et al.
# Submitted via: ExactAudioCopy v0.95a3
#
DISCID=a40e420b
DTITLE=Alex Maryol - Make Everything Alright
DYEAR=2002
DGENRE=Blues
TTITLE0=Make everything alright
TTITLE1=Driving
TTITLE2=Tonight
TTITLE3=God don't ever change
TTITLE4=Pins and needles
TTITLE5=In the ground
TTITLE6=I love you baby
TTITLE7=Changes
TTITLE8=Annie Mae
TTITLE9=Penny in my pocket
TTITLE10=Missing you
EXTD=
EXTT0=
EXTT1=
EXTT2=
EXTT3=
EXTT4=
EXTT5=
EXTT6=
EXTT7=
EXTT8=
EXTT9=
EXTT10=
PLAYORDER=
